<svg id="annotate" data-name="annotate" xmlns="http://www.w3.org/2000/svg" width="751" height="752" viewBox="0 0 751 752"><path d="M348.0186,513.42c-.06,0-.1182,0-.1778-.001a26.6132,26.6132,0,0,1-22.9638-13.53L251.2188,369.0254l-57.962,78.93a25,25,0,1,1-40.3007-29.5938l78.55-106.9668a27.5549,27.5549,0,0,1,46.2177,2.7842l70.5987,125.4268L462.8242,242.1309a26.9475,26.9475,0,0,1,45.544-1.7129l100.2607,146.46a25,25,0,1,1-41.2578,28.2442L487.7529,298.8174l-116.76,201.3672A26.6233,26.6233,0,0,1,348.0186,513.42Z"/><g id="profile_picture_small_3" data-name="profile picture small 3"><path d="M375.5788,751.77C168.3238,751.77-.3038,583.1423-.3038,375.8873S168.3238.0046,375.5788.0046,751.4614,168.6323,751.4614,375.8873,582.8338,751.77,375.5788,751.77Zm0-693.9372c-175.3667,0-318.0545,142.6878-318.0545,318.0546S200.2121,693.9418,375.5788,693.9418,693.6333,551.254,693.6333,375.8873,550.9455,57.8327,375.5788,57.8327Z"/></g></svg>
