<svg id="Layer_1" data-name="Layer 1" xmlns="http://www.w3.org/2000/svg" viewBox="0 0 649 512"><path d="M501.24,53.73h57.28A36.32,36.32,0,0,1,594.81,90v57.28a8.48,8.48,0,0,0,8.48,8.48h36.06a8.49,8.49,0,0,0,8.48-8.48V90A89.42,89.42,0,0,0,558.52.7H501.24a8.49,8.49,0,0,0-8.48,8.49V45.24A8.49,8.49,0,0,0,501.24,53.73Z"/><path d="M9.22,155.77H45.28a8.48,8.48,0,0,0,8.48-8.48V90A36.32,36.32,0,0,1,90.05,53.73h57.28a8.5,8.5,0,0,0,8.48-8.49V9.19A8.5,8.5,0,0,0,147.33.7H90.05A89.41,89.41,0,0,0,.74,90v57.28A8.48,8.48,0,0,0,9.22,155.77Z"/><path d="M148.43,457.8H91.15a36.32,36.32,0,0,1-36.28-36.29V364.23a8.49,8.49,0,0,0-8.48-8.48H10.33a8.48,8.48,0,0,0-8.48,8.48v57.28a89.41,89.41,0,0,0,89.3,89.31h57.28a8.49,8.49,0,0,0,8.48-8.48V466.28A8.48,8.48,0,0,0,148.43,457.8Z"/><path d="M640.45,355.75H604.39a8.49,8.49,0,0,0-8.48,8.48v57.28a36.33,36.33,0,0,1-36.29,36.29H502.35a8.48,8.48,0,0,0-8.48,8.48v36.06a8.49,8.49,0,0,0,8.48,8.48h57.27a89.41,89.41,0,0,0,89.31-89.31V364.23A8.48,8.48,0,0,0,640.45,355.75Z"/><rect x="102.14" y="102.71" width="52.84" height="308.65" rx="15.69"/><rect x="200.57" y="102.71" width="52.84" height="219.15" rx="15.69"/><rect x="298.08" y="102.71" width="52.84" height="308.65" rx="15.69"/><rect x="494.93" y="102.71" width="52.84" height="308.65" rx="15.69"/><rect x="396.51" y="102.71" width="52.84" height="219.15" rx="15.69"/><rect x="200.57" y="357.61" width="52.84" height="53.76" rx="15.69"/><rect x="396.51" y="357.61" width="52.84" height="53.76" rx="15.69"/></svg>