<svg id="Layer_1" data-name="Layer 1" xmlns="http://www.w3.org/2000/svg" viewBox="0 0 684 430"><rect x="204.36" y="370.45" width="58.78" height="59.8" rx="17.46"/><rect x="422.34" y="370.45" width="58.78" height="59.8" rx="17.46"/><path d="M223.53,136.05h39.61V17.57A17.48,17.48,0,0,0,245.68.11H221.82a17.48,17.48,0,0,0-17.46,17.46V136.05Z"/><path d="M223.53,234.88H204.36v78.34a17.48,17.48,0,0,0,17.46,17.46h23.86a17.48,17.48,0,0,0,17.46-17.46V234.88Z"/><path d="M152.33,136.05h1.31V17.57A17.48,17.48,0,0,0,136.18.11H112.32A17.48,17.48,0,0,0,94.86,17.57V136.05Z"/><path d="M152.33,234.88H94.86V412.79a17.48,17.48,0,0,0,17.46,17.46h23.86a17.48,17.48,0,0,0,17.46-17.46V234.88Z"/><path d="M326.17,136.05h45.45V17.57A17.48,17.48,0,0,0,354.16.11H330.3a17.48,17.48,0,0,0-17.46,17.46V136.05Z"/><path d="M358.14,234.88h-45.3V412.79a17.48,17.48,0,0,0,17.46,17.46h23.86a17.48,17.48,0,0,0,17.46-17.46V234.88Z"/><path d="M460.78,136.05h20.34V17.57A17.48,17.48,0,0,0,463.66.11H439.8a17.48,17.48,0,0,0-17.46,17.46V136.05Z"/><path d="M460.78,234.88H422.34v78.34a17.48,17.48,0,0,0,17.46,17.46h23.86a17.48,17.48,0,0,0,17.46-17.46V234.88Z"/><path d="M532,136.05h58.64V17.57A17.48,17.48,0,0,0,573.16.11H549.3a17.48,17.48,0,0,0-17.46,17.46V136.05Z"/><path d="M532,234.88h-.14V412.79a17.48,17.48,0,0,0,17.46,17.46h23.86a17.48,17.48,0,0,0,17.46-17.46V234.88Z"/><path d="M531.86,156.21H17.6A17.48,17.48,0,0,0,.14,173.67v23.86A17.48,17.48,0,0,0,17.6,215H666.47a17.48,17.48,0,0,0,17.46-17.46V173.67a17.48,17.48,0,0,0-17.46-17.46Z"/></svg>