<svg id="curate" data-name="curate" xmlns="http://www.w3.org/2000/svg" width="752" height="751" viewBox="0 0 752 751"><path d="M375.9707,126,149.31,260.3057V506.9634L375.34,641,602,506.6943V260.0366ZM546.6963,276.0708,375.3442,380.5586,204.6135,276.3557l171.3489-101.531ZM191.31,317.44l163.03,99.503V579.7175L191.31,483.04ZM396.34,579.7368V416.95L560,317.1519v165.61Z"/><g id="profile_picture_small_" data-name="profile picture small "><path d="M376.0033,751.0306C168.7483,751.0306.1207,582.403.1207,375.148S168.7483-.7346,376.0033-.7346,751.8859,167.893,751.8859,375.148,583.2583,751.0306,376.0033,751.0306Zm0-693.9371c-175.3667,0-318.0545,142.6878-318.0545,318.0545S200.6366,693.2025,376.0033,693.2025,694.0578,550.5147,694.0578,375.148,551.37,57.0935,376.0033,57.0935Z"/></g></svg>
