<svg id="Layer_1" data-name="Layer 1" xmlns="http://www.w3.org/2000/svg" width="886" height="899" viewBox="0 0 886 899"><g id="Essential_Plan_icon_" data-name="Essential Plan icon "><g id="Group_141" data-name="Group 141"><g id="Path_202" data-name="Path 202"><path d="M580.9653,501.7236l71.927-61.6428a51.8092,51.8092,0,0,0,15.8768-55.1026,52.446,52.446,0,0,0-44.834-35.4974L528.69,342.055l-36.43-87.8659a51.7163,51.7163,0,0,0-47.6459-31.7535,49.8674,49.8674,0,0,0-47.63,31.7536l-36.43,87.8658-95.2761,7.4723a52.4461,52.4461,0,0,0-44.834,35.4975,51.2656,51.2656,0,0,0,15.8768,55.1026L308.2486,501.77l-22.448,92.4331a52.3062,52.3062,0,0,0,19.6207,54.17,54.0616,54.0616,0,0,0,57.9144,2.7963l81.2635-49.51,81.2791,49.5411a56.2978,56.2978,0,0,0,27.093,7.4724,53.0674,53.0674,0,0,0,30.8214-10.2687,50.706,50.706,0,0,0,19.6207-54.17ZM541.74,460.618h0a51.5917,51.5917,0,0,0-16.8089,51.3742L545.4834,597,470.76,551.2336a52.8188,52.8188,0,0,0-54.1705,0L341.8663,597l20.5528-85.0074A51.5919,51.5919,0,0,0,345.61,460.618l-66.3189-56.9823,86.8717-7.4723A52.7258,52.7258,0,0,0,410.0805,364.41l33.6332-80.3314L477.347,364.41a52.7255,52.7255,0,0,0,43.9019,31.7535l86.8716,7.4724Z"/></g><g id="Path_203" data-name="Path 203"><path d="M443.6361,143.0363a28.1027,28.1027,0,0,0,27.9629-27.9629V30.8893a28.1028,28.1028,0,0,0-27.9629-27.963,28.7242,28.7242,0,0,0-27.963,27.963v84.1219A28.7241,28.7241,0,0,0,443.6361,143.0363Z"/></g><g id="Path_204" data-name="Path 204"><path d="M189.608,230.84a28.4912,28.4912,0,0,0,19.6207,8.4044,26.8913,26.8913,0,0,0,19.6207-8.4044,28.196,28.196,0,0,0,.2837-39.8742q-.1409-.1428-.2837-.2837l-59.7787-59.7787a28.398,28.398,0,0,0-40.1579,40.158Z"/></g><g id="Path_205" data-name="Path 205"><path d="M140.1135,444.6792a28.1027,28.1027,0,0,0-27.9629-27.963H27.9665a27.5281,27.5281,0,0,0-27.963,27.086q-.007.4384,0,.877a28.1027,28.1027,0,0,0,27.963,27.9629h84.1219A28.7241,28.7241,0,0,0,140.1135,444.6792Z"/></g><g id="Path_206" data-name="Path 206"><path d="M187.7438,658.6425l-59.7786,59.7786a28.196,28.196,0,0,0-.2838,39.8742q.1409.1429.2838.2838a27.093,27.093,0,0,0,38.3042.9216q.4718-.45.9216-.9216L226.97,698.8a28.1959,28.1959,0,0,0,.2838-39.8741q-.1409-.1429-.2838-.2838A28.8173,28.8173,0,0,0,187.7438,658.6425Z"/></g><g id="Path_207" data-name="Path 207"><path d="M441.7563,748.3105a28.1027,28.1027,0,0,0-27.9629,27.963v84.06a28.1028,28.1028,0,0,0,27.9629,27.9631,28.7242,28.7242,0,0,0,27.963-27.9631v-84.06A28.7241,28.7241,0,0,0,441.7563,748.3105Z"/></g><g id="Path_208" data-name="Path 208"><path d="M695.8932,660.5067a28.398,28.398,0,0,0-40.158,40.1579l59.7786,59.7786a27.0931,27.0931,0,0,0,38.3043.9216q.4718-.45.9216-.9216a28.196,28.196,0,0,0,.2837-39.8742q-.1407-.1429-.2837-.2837Z"/></g><g id="Path_209" data-name="Path 209"><path d="M858.42,418.5959H774.2983a28.1028,28.1028,0,0,0-27.9631,27.9629,28.7242,28.7242,0,0,0,27.9631,27.963h84.06a28.1027,28.1027,0,0,0,27.963-27.963A28.7241,28.7241,0,0,0,858.42,418.5959Z"/></g><g id="Path_210" data-name="Path 210"><path d="M677.1424,240.1766a26.8911,26.8911,0,0,0,19.6207-8.4044l59.7787-59.7786a28.398,28.398,0,1,0-39.6812-40.6349q-.2412.2357-.4768.4769l-58.8465,60.7107a28.196,28.196,0,0,0-.2838,39.8742q.1409.143.2838.2838A27.3727,27.3727,0,0,0,677.1424,240.1766Z"/></g></g></g></svg>