<svg id="Layer_1" data-name="Layer 1" xmlns="http://www.w3.org/2000/svg" width="931" height="899" viewBox="0 0 931 899"><polygon points="121.058 820.331 121.058 820.332 121.058 820.331 121.058 820.331"/><path d="M925.9792,402.5674a99.4357,99.4357,0,0,0-189.6208.99l-1.0166,3.2808H583.6028l-.91-3.478a121.9764,121.9764,0,0,0-86.5044-86.7813l-3.459-.9214V194.7642l3.11-1.1a89.4283,89.4283,0,0,0,8.7234-164.9908,89.4177,89.4177,0,1,0-68.345,164.9908l3.11,1.1V315.68l-3.4892.9067A119.5266,119.5266,0,0,0,397.4712,334.2l-3.0493,2.12L190.95,151.2842l1.2893-3.0454a97.5873,97.5873,0,0,0,7.7978-38.6665A99.87,99.87,0,0,0,100.2129,9.6377h-.0457a99.8738,99.8738,0,0,0-.0454,199.7476,98.3088,98.3088,0,0,0,53.0525-15.5884l3.0039-1.93L359.7563,376.9854l-1.6384,3.1748a116.8261,116.8261,0,0,0-2.2151,102.4072l1.229,2.6621-1.8662,2.2529c-23.9546,28.9009-59.2573,65.88-96.6233,105.0322-36.4861,38.2266-74.216,77.7544-102.3579,110.9483l-2.0935,2.4726-3.0493-1.1074a87.6113,87.6113,0,0,0-29.9626-5.2641h-.1365a89.4172,89.4172,0,0,0,.0151,178.8344h.0152A89.1244,89.1244,0,0,0,197.2,742.4521l-1.79-2.8977,2.2148-2.5866c23.8335-27.8386,56.0718-61.6167,90.1909-97.3745,35.5908-37.2935,72.3955-75.8579,100.1582-108.396l2.8521-3.33,3.49,2.6284a119.1828,119.1828,0,0,0,130.7881,8.1773l3.4741-1.9874,2.488,3.1407c32.9815,41.6855,62.3523,78.6987,91.9658,116.0039,25.7906,32.5151,51.7632,65.2461,80.4666,101.4856l2.0481,2.5866-1.76,2.7915a88.4417,88.4417,0,0,0-13.6538,47.2269c.2732,49.0476,40.43,89.1518,89.4931,89.3718h.03a89.4173,89.4173,0,0,0,.0305-178.8345h-.4248a87.703,87.703,0,0,0-29.1738,4.957l-3.14,1.0962-79.89-100.7841c-31.51-39.7173-62.64-78.96-98.2466-123.9727l-2.0327-2.5674,1.73-2.7842a120.025,120.025,0,0,0,14.1392-32.708l.9253-3.4668H735.63l1.0315,3.2354a99.4353,99.4353,0,0,0,189.3176-60.896ZM133.5129,142.1592a45.7364,45.7364,0,0,1-32.39,13.8359h-.9558a46.4666,46.4666,0,1,1,46.4534-46.4687A45.7022,45.7022,0,0,1,133.5129,142.1592Zm13.5022,672.0625a35.3285,35.3285,0,0,1-25.0017,10.7712h-.9709a36.027,36.027,0,0,1-.0152-72.0539h.0152a36.0731,36.0731,0,0,1,36.0307,36.008A35.274,35.274,0,0,1,147.0151,814.2217Zm282.9976-704.71a36.0232,36.0232,0,1,1,72.0464,0,35.5542,35.5542,0,0,1-35.0142,36.0274h-1.0166A36.0622,36.0622,0,0,1,430.0127,109.5112Zm84.0618,371.482a66.4955,66.4955,0,0,1-47.1663,19.9536h-.9709a67.3758,67.3758,0,1,1,67.374-67.374A66.4115,66.4115,0,0,1,514.0745,480.9932ZM779.6106,773.8481a36.0619,36.0619,0,0,1,36.0156,36.0271,35.5543,35.5543,0,0,1-35.0144,36.0271h-1.0012a36.0271,36.0271,0,1,1,0-72.0542Zm85.6243-307.65a45.7093,45.7093,0,0,1-32.3745,13.84h-1.0013a46.4666,46.4666,0,0,1,.0152-92.9331h.0151a46.5266,46.5266,0,0,1,46.4534,46.4683A45.634,45.634,0,0,1,865.2349,466.1978Z"/></svg>