<svg id="log-out" data-name="log out" xmlns="http://www.w3.org/2000/svg" width="454" height="382" viewBox="0 0 454 382"><path d="M243.4618,287.64a21.2042,21.2042,0,0,0-20.4083,20.5308V320.188a19.5223,19.5223,0,0,1-19.523,19.1372H61.3881c-5.3023.4141-9.9546-1.8272-13.6181-5.4058a19.1586,19.1586,0,0,1-5.8014-13.6748V61.6328a19.1516,19.1516,0,0,1,19.41-19.1H203.3138a19.5073,19.5073,0,0,1,19.7209,19.0806l.0094,13.0156a21.122,21.122,0,0,0,21.8116,20.3989,21.204,21.204,0,0,0,20.4082-20.5307V61.5762A61.838,61.838,0,0,0,203.54.3042H61.1338A61.54,61.54,0,0,0-.2795,61.6328V320.3765a61.48,61.48,0,0,0,61.5357,61.291h145.853V381.46a61.8337,61.8337,0,0,0,58.1736-61.2154l-.0094-12.2055C264.8872,296.38,254.829,286.981,243.4618,287.64Z"/><path d="M448.1476,177.17a20.7606,20.7606,0,0,0-1.5163-1.5068l-89.3181-80.56A21.53,21.53,0,0,0,342.1694,89.66a21.0033,21.0033,0,0,0-13.1566,36.541l48.4639,43.623H127.5856a21.1215,21.1215,0,0,0-.744,42.229c.5274.0191,1.0265.0191,1.3373,0H377.6273l-48.52,44.0186a21.2227,21.2227,0,0,0,14.136,36.9741h.0942a20.7446,20.7446,0,0,0,14.08-5.481l89.2145-80.5971a21.0691,21.0691,0,0,0,1.5163-29.7979Z"/></svg>
