<svg id="manage" data-name="manage" xmlns="http://www.w3.org/2000/svg" width="752" height="752" viewBox="0 0 752 752"><path d="M311.1016,531.2471c-.125,0-.2491-.001-.3741-.003a31.2706,31.2706,0,0,1-22.36-9.8671L167.7861,393.124a25,25,0,0,1,36.4278-34.249l107.0771,113.89L548.0166,227.6338a25,25,0,0,1,35.9668,34.7324L333.374,521.875A31.28,31.28,0,0,1,311.1016,531.2471Z"/><g id="profile_picture_small_2" data-name="profile picture small 2"><path d="M376.0985,751.4933C168.8435,751.4933.2159,582.8657.2159,375.6107S168.8435-.2719,376.0985-.2719,751.9812,168.3557,751.9812,375.6107,583.3535,751.4933,376.0985,751.4933Zm0-693.9371C200.7318,57.5562,58.044,200.244,58.044,375.6107S200.7318,693.6652,376.0985,693.6652,694.1531,550.9774,694.1531,375.6107,551.4652,57.5562,376.0985,57.5562Z"/></g></svg>
