<svg id="previous-page" data-name="previous page" xmlns="http://www.w3.org/2000/svg" width="611.8047" height="751.7664" viewBox="0 0 611.8047 751.7664"><path d="M442.9321,370.4932H230.4943l64.8465-64.8465a25.7782,25.7782,0,0,0,0-36.4472c-9.739-9.7391-26.7174-9.7391-36.4565,0L150.3887,377.686a25.7167,25.7167,0,0,0,0,36.3172l108.477,109.23a25.5288,25.5288,0,0,0,18.1771,7.6575.5173.5173,0,0,0,.1674.0185A25.7832,25.7832,0,0,0,295.5173,486.99l-64.54-64.9209h212.01a25.7178,25.7178,0,0,0,25.6952-25.6858l-.0651-.8735A25.7217,25.7217,0,0,0,442.9321,370.4932Z"/><path d="M583.6375,171.53,440.1628,28.0276A95.7561,95.7561,0,0,0,372.7329,0H130.8082A130.9508,130.9508,0,0,0,0,130.8083v490.15A130.9508,130.9508,0,0,0,130.8082,751.7664H480.9963A130.9508,130.9508,0,0,0,611.8044,620.9583V239.35A95.8454,95.8454,0,0,0,583.6375,171.53Zm-23.4649,67.7276V620.9583a79.3584,79.3584,0,0,1-79.2693,79.269H130.7153a79.3585,79.3585,0,0,1-79.2693-79.269v-490.15a79.3588,79.3588,0,0,1,79.2693-79.2695H372.3611a44.55,44.55,0,0,1,31.3174,12.9546l143.54,143.4653A43.9345,43.9345,0,0,1,560.1726,239.2576Z"/></svg>
