<svg id="Layer_1" data-name="Layer 1" xmlns="http://www.w3.org/2000/svg" width="878" height="878" viewBox="0 0 878 878"><path d="M438.9867.2314h-.0153A111.7,111.7,0,0,0,327.2683,111.9233a106.1921,106.1921,0,0,0,14.8674,53.7393L346.46,172.93,254.66,264.7207c-8.0557,8.731-8.0557,22.8853.2883,31.9233a21.8649,21.8649,0,0,0,30.9031,2.25l8.177,7.2436-7.6915-7.6914,91.42-91.4121,7.0544,3.6142a119.28,119.28,0,0,0,108.5779,0l7.0546-3.6181,93.3311,93.4756a23.8037,23.8037,0,1,0,34.4078-32.9019l-94.12-94.1963,3.4135-6.9746a130.481,130.481,0,0,0,13.1987-54.6684A111.6941,111.6941,0,0,0,438.9867.2314Zm.1062,163.5425a51.731,51.731,0,0,1-.1062-103.4619h.1062a51.731,51.731,0,1,1,0,103.4619Z"/><path d="M438.9867,877.5449A111.8332,111.8332,0,0,0,550.69,765.8342a106.2262,106.2262,0,0,0-14.822-53.7126l-4.2933-7.2593,93.8168-93.8169c8.0556-8.7305,8.0556-22.8852-.2884-31.9233a20.3238,20.3238,0,0,0-28.7336-2.3247,21.0829,21.0829,0,0,0-2.0784,2.0786l-.5159.5537-93.8015,93.8125-7.2668-4.293a106.4687,106.4687,0,0,0-53.7656-14.83,130.4927,130.4927,0,0,0-54.418,13.2027l-6.9785,3.417-93.3465-93.3467a23.5247,23.5247,0,0,0-16.3693-6.5269c-.1519,0-.2884.0034-.44.0034a23.8,23.8,0,0,0-16.7032,40.313l93.21,93.2061-3.4133,6.9787a130.4761,130.4761,0,0,0-13.1988,54.6683C327.2834,827.4316,377.3928,877.5449,438.9867,877.5449Zm.0455-163.4245a51.7308,51.7308,0,0,1,.03,103.4616h-.03a51.7308,51.7308,0,1,1,0-103.4616Z"/><path d="M112.13,327.2324A111.7127,111.7127,0,1,0,223.8333,438.9473C223.6663,377.5508,173.5569,327.43,112.13,327.2324Zm.03,163.4434h-.03a51.7176,51.7176,0,1,1,.03,0Z"/><path d="M765.9192,327.2324A111.7127,111.7127,0,1,0,877.6376,438.9473C877.4556,377.5542,827.3461,327.43,765.9192,327.2324Zm.03,163.4434h-.03a51.7176,51.7176,0,1,1,.03,0Z"/></svg>